<svg xmlns="http://www.w3.org/2000/svg" width="31.553" height="36.812" viewBox="0 0 31.553 36.812">
  <path id="Icon_metro-file-pdf" data-name="Icon metro-file-pdf" d="M32.727,10.01a4.78,4.78,0,0,1,.986,1.561,4.741,4.741,0,0,1,.411,1.808V37.044a1.964,1.964,0,0,1-1.972,1.972H4.543a1.964,1.964,0,0,1-1.972-1.972V4.176A1.964,1.964,0,0,1,4.543,2.2H22.949a4.742,4.742,0,0,1,1.808.411,4.78,4.78,0,0,1,1.561.986ZM23.606,5v7.724H31.33a2.244,2.244,0,0,0-.452-.842l-6.43-6.43A2.244,2.244,0,0,0,23.606,5Zm7.888,31.389V15.351H22.949a1.964,1.964,0,0,1-1.972-1.972V4.833H5.2V36.386H31.495ZM20.936,24.2a15.631,15.631,0,0,0,1.726,1.15,20.385,20.385,0,0,1,2.4-.144q3.02,0,3.636,1.007a.993.993,0,0,1,.041,1.068.059.059,0,0,1-.02.041l-.041.041v.021q-.123.781-1.458.781a8.474,8.474,0,0,1-2.362-.411,14.979,14.979,0,0,1-2.671-1.089,36.99,36.99,0,0,0-8.053,1.705q-3.143,5.382-4.971,5.382a1.2,1.2,0,0,1-.575-.144L8.1,33.367q-.02-.021-.123-.1a.849.849,0,0,1-.123-.74A4.461,4.461,0,0,1,9,30.645a9.928,9.928,0,0,1,2.712-1.982.3.3,0,0,1,.472.123.118.118,0,0,1,.041.082q1.068-1.746,2.2-4.047a31.354,31.354,0,0,0,2.136-5.382,16.606,16.606,0,0,1-.627-3.277,7.987,7.987,0,0,1,.134-2.619q.226-.822.863-.822h.452a.866.866,0,0,1,.719.308,1.641,1.641,0,0,1,.185,1.4.446.446,0,0,1-.082.164.535.535,0,0,1,.021.164v.616a26.9,26.9,0,0,1-.288,3.944,10.393,10.393,0,0,0,3,4.889ZM9.1,32.648q1.068-.493,2.814-3.246a11.711,11.711,0,0,0-1.8,1.726A6.828,6.828,0,0,0,9.1,32.648Zm8.176-18.9a6.108,6.108,0,0,0-.041,2.712q.021-.144.144-.9,0-.062.144-.883a.462.462,0,0,1,.082-.164.059.059,0,0,1-.02-.041.042.042,0,0,0-.01-.031.042.042,0,0,1-.01-.031,1.182,1.182,0,0,0-.267-.74.059.059,0,0,1-.02.041v.041ZM14.732,27.327a30.131,30.131,0,0,1,5.834-1.664,3.1,3.1,0,0,1-.267-.2,3.679,3.679,0,0,1-.329-.277,10.881,10.881,0,0,1-2.609-3.615,27.451,27.451,0,0,1-1.705,4.047q-.616,1.15-.924,1.705ZM28,27q-.493-.493-2.876-.493a7.77,7.77,0,0,0,2.547.575,1.993,1.993,0,0,0,.37-.021q0-.021-.041-.062Z" transform="translate(-2.571 -2.204)"/>
</svg>
